# Blender v2.92.0 OBJ File: ''
# www.blender.org
mtllib untitled.mtl
o pCylinder1_Mesh
v 0.009511 0.025234 0.004010
v 0.008090 0.024239 0.001406
v 0.005878 0.023449 -0.000661
v 0.003090 0.022942 -0.001988
v 0.000000 0.022767 -0.002445
v -0.003090 0.022942 -0.001988
v -0.005878 0.023449 -0.000661
v -0.008090 0.024239 0.001406
v -0.009511 0.025234 0.004010
v -0.010000 0.026337 0.006896
v -0.009511 0.027441 0.009782
v -0.008090 0.028436 0.012386
v -0.005878 0.029226 0.014453
v -0.003090 0.029733 0.015780
v -0.000000 0.029908 0.016237
v 0.003090 0.029733 0.015780
v 0.005878 0.029226 0.014453
v 0.008090 0.028436 0.012386
v 0.009511 0.027441 0.009782
v 0.010000 0.026337 0.006896
v 0.009511 0.054272 -0.007090
v 0.008090 0.053277 -0.009694
v 0.005878 0.052487 -0.011761
v 0.003090 0.051980 -0.013087
v 0.000000 0.051805 -0.013545
v -0.003090 0.051980 -0.013087
v -0.005878 0.052487 -0.011761
v -0.008090 0.053277 -0.009694
v -0.009511 0.054272 -0.007090
v -0.010000 0.055376 -0.004204
v -0.009511 0.056479 -0.001317
v -0.008090 0.057474 0.001287
v -0.005878 0.058264 0.003353
v -0.003090 0.058771 0.004680
v -0.000000 0.058946 0.005137
v 0.003090 0.058771 0.004680
v 0.005878 0.058264 0.003353
v 0.008090 0.057474 0.001287
v 0.009511 0.056479 -0.001317
v 0.010000 0.055376 -0.004204
v 0.010717 0.054132 -0.007457
v 0.009117 0.053011 -0.010391
v 0.008858 0.061040 -0.013259
v 0.010414 0.062130 -0.010408
v 0.006624 0.052121 -0.012720
v 0.006436 0.060175 -0.015522
v 0.003482 0.051549 -0.014215
v 0.003384 0.059620 -0.016975
v 0.000000 0.051352 -0.014730
v -0.000000 0.059428 -0.017475
v -0.003482 0.051549 -0.014215
v -0.003384 0.059620 -0.016975
v -0.006624 0.052121 -0.012720
v -0.006436 0.060175 -0.015522
v -0.009117 0.053011 -0.010391
v -0.008858 0.061040 -0.013259
v -0.010717 0.054132 -0.007457
v -0.010414 0.062130 -0.010408
v -0.011269 0.055376 -0.004204
v -0.010950 0.063338 -0.007247
v -0.010717 0.056619 -0.000951
v -0.010414 0.064546 -0.004087
v -0.009117 0.057741 0.001983
v -0.008858 0.065636 -0.001235
v -0.006624 0.058631 0.004312
v -0.006436 0.066501 0.001027
v -0.003482 0.059202 0.005807
v -0.003384 0.067056 0.002480
v -0.000000 0.059399 0.006322
v -0.000000 0.067247 0.002981
v 0.003482 0.059202 0.005807
v 0.003384 0.067056 0.002480
v 0.006624 0.058631 0.004312
v 0.006436 0.066501 0.001027
v 0.009117 0.057741 0.001983
v 0.008858 0.065636 -0.001235
v 0.010717 0.056619 -0.000951
v 0.010414 0.064546 -0.004087
v 0.011269 0.055376 -0.004204
v 0.010950 0.063338 -0.007247
v -0.000000 0.063783 -0.007418
v 0.009511 0.025234 0.004010
v 0.008090 0.024239 0.001406
v 0.000000 0.026337 0.006896
v 0.005878 0.023449 -0.000661
v 0.003090 0.022942 -0.001988
v 0.000000 0.022767 -0.002445
v -0.003090 0.022942 -0.001988
v -0.005878 0.023449 -0.000661
v -0.008090 0.024239 0.001406
v -0.009511 0.025234 0.004010
v -0.010000 0.026337 0.006896
v -0.009511 0.027441 0.009782
v -0.008090 0.028436 0.012386
v -0.005878 0.029226 0.014453
v -0.003090 0.029733 0.015780
v -0.000000 0.029908 0.016237
v 0.003090 0.029733 0.015780
v 0.005878 0.029226 0.014453
v 0.008090 0.028436 0.012386
v 0.009511 0.027441 0.009782
v 0.010000 0.026337 0.006896
vt 0.818092 0.545534
vt 0.881666 0.592206
vt 0.818092 0.590785
vt 0.881666 0.513344
vt 0.881666 0.548238
vt 0.822657 0.464567
vt 0.818092 0.509623
vt 0.827717 0.414621
vt 0.886101 0.469564
vt 0.832776 0.364676
vt 0.891017 0.421034
vt 0.837341 0.319620
vt 0.895934 0.372504
vt 0.844543 0.284438
vt 0.900369 0.328724
vt 0.853618 0.240107
vt 0.907367 0.294540
vt 0.925960 0.203716
vt 0.916185 0.251465
vt 0.873738 0.141824
vt 0.863678 0.190966
vt 0.882813 0.097493
vt 0.935735 0.155967
vt 0.890016 0.062312
vt 0.944553 0.112892
vt 0.837341 0.962271
vt 0.895934 0.909387
vt 0.900369 0.953167
vt 0.827717 0.867270
vt 0.832777 0.917215
vt 0.886101 0.812326
vt 0.891017 0.860857
vt 0.818092 0.772268
vt 0.822657 0.817324
vt 0.818092 0.736357
vt 0.881666 0.768547
vt 0.881666 0.689685
vt 0.881666 0.733653
vt 0.818092 0.691106
vt 0.881666 0.640945
vt 0.818092 0.640945
vt 0.744663 0.115523
vt 0.776520 0.178046
vt 0.563215 0.247353
vt 0.695045 0.065905
vt 0.632522 0.034048
vt 0.563215 0.023071
vt 0.493908 0.034048
vt 0.431385 0.065905
vt 0.381767 0.115523
vt 0.349910 0.178046
vt 0.338933 0.247353
vt 0.349910 0.316660
vt 0.381767 0.379182
vt 0.431385 0.428800
vt 0.493908 0.460657
vt 0.563215 0.471634
vt 0.632522 0.460657
vt 0.695044 0.428800
vt 0.744663 0.379182
vt 0.776519 0.316660
vt 0.787497 0.247353
vt 0.741941 0.783042
vt 0.715518 0.834900
vt 0.565020 0.725557
vt 0.674364 0.876055
vt 0.622505 0.902478
vt 0.565020 0.911582
vt 0.507535 0.902478
vt 0.455677 0.876055
vt 0.414522 0.834900
vt 0.388099 0.783042
vt 0.378995 0.725557
vt 0.388099 0.668072
vt 0.414522 0.616214
vt 0.455677 0.575059
vt 0.507535 0.548636
vt 0.565020 0.539531
vt 0.622505 0.548636
vt 0.674364 0.575059
vt 0.715518 0.616214
vt 0.741941 0.668072
vt 0.751046 0.725557
vt 0.041368 0.263863
vt 0.315740 0.311382
vt 0.041368 0.311382
vt 0.315740 0.226152
vt 0.315740 0.263863
vt 0.041368 0.178633
vt 0.041368 0.226152
vt 0.041368 0.125957
vt 0.315740 0.178633
vt 0.041368 0.073282
vt 0.315740 0.125957
vt 0.315740 0.025763
vt 0.315740 0.073282
vt 0.041368 0.940449
vt 0.315740 0.978160
vt 0.041368 0.978160
vt 0.041368 0.892930
vt 0.315740 0.940449
vt 0.041368 0.840255
vt 0.315740 0.892930
vt 0.041369 0.787580
vt 0.315740 0.840255
vt 0.041369 0.740061
vt 0.315740 0.787580
vt 0.041369 0.702350
vt 0.315740 0.740061
vt 0.315740 0.654831
vt 0.315740 0.702350
vt 0.041369 0.602156
vt 0.041369 0.654831
vt 0.041369 0.549481
vt 0.315740 0.602156
vt 0.041368 0.501962
vt 0.315740 0.549481
vt 0.041368 0.464251
vt 0.315740 0.501962
vt 0.041368 0.416732
vt 0.315740 0.464251
vt 0.315740 0.364057
vt 0.315740 0.416732
vt 0.041368 0.364057
vt 0.760456 0.664580
vt 0.752288 0.591299
vt 0.785483 0.656448
vt 0.685118 0.560887
vt 0.730999 0.606767
vt 0.635438 0.506402
vt 0.700586 0.539597
vt 0.563220 0.521280
vt 0.627306 0.531430
vt 0.491002 0.506402
vt 0.563220 0.494964
vt 0.441321 0.560887
vt 0.499134 0.531430
vt 0.374151 0.591299
vt 0.425853 0.539597
vt 0.365984 0.664580
vt 0.395441 0.606767
vt 0.355834 0.728665
vt 0.340956 0.656448
vt 0.365984 0.792751
vt 0.329518 0.728665
vt 0.374151 0.866032
vt 0.340956 0.800883
vt 0.441321 0.896444
vt 0.395441 0.850564
vt 0.491002 0.950929
vt 0.425854 0.917734
vt 0.563220 0.936051
vt 0.499134 0.925901
vt 0.635438 0.950929
vt 0.563220 0.962367
vt 0.627306 0.925901
vt 0.700586 0.917734
vt 0.685118 0.896444
vt 0.752288 0.866032
vt 0.760456 0.792751
vt 0.730999 0.850564
vt 0.770606 0.728665
vt 0.785483 0.800883
vt 0.796921 0.728666
vt 0.744663 0.115523
vt 0.695045 0.065905
vt 0.632522 0.034048
vt 0.563215 0.023071
vt 0.493908 0.034048
vt 0.431385 0.065905
vt 0.381767 0.115523
vt 0.349910 0.178046
vt 0.338933 0.247353
vt 0.349910 0.316660
vt 0.381767 0.379182
vt 0.431385 0.428800
vt 0.493908 0.460657
vt 0.563215 0.471634
vt 0.632522 0.460657
vt 0.695044 0.428800
vt 0.744663 0.379182
vt 0.776519 0.316660
vt 0.787497 0.247353
vt 0.776520 0.178046
vt 0.951551 0.078707
vt 0.041368 0.025764
vn 0.8085 -0.1748 -0.5620
vn 0.9504 -0.0753 -0.3018
vn 0.5874 -0.2537 -0.7685
vn 0.3088 -0.3044 -0.9011
vn 0.0000 -0.3218 -0.9468
vn -0.3088 -0.3044 -0.9011
vn -0.5874 -0.2537 -0.7685
vn -0.8085 -0.1748 -0.5620
vn -0.9504 -0.0753 -0.3018
vn -0.9993 0.0350 -0.0134
vn -0.9504 0.1452 0.2751
vn -0.8085 0.2447 0.5353
vn -0.5874 0.3236 0.7418
vn -0.8084 0.2447 0.5353
vn -0.3088 0.3743 0.8744
vn 0.0000 0.3918 0.9201
vn 0.3088 0.3743 0.8744
vn 0.5874 0.3236 0.7418
vn 0.8085 0.2447 0.5353
vn 0.9504 0.1452 0.2751
vn 0.8084 0.2447 0.5353
vn 0.9993 0.0350 -0.0134
vn 0.0000 -0.9341 0.3570
vn 0.0414 0.9284 -0.3693
vn 0.0352 0.9241 -0.3806
vn -0.0000 0.9341 -0.3570
vn 0.0256 0.9206 -0.3896
vn 0.0134 0.9184 -0.3954
vn -0.0000 0.9177 -0.3974
vn -0.0134 0.9184 -0.3954
vn -0.0256 0.9206 -0.3896
vn -0.0352 0.9241 -0.3806
vn -0.0414 0.9284 -0.3693
vn -0.0435 0.9332 -0.3567
vn -0.0414 0.9380 -0.3442
vn -0.0352 0.9423 -0.3328
vn -0.0256 0.9458 -0.3238
vn -0.0134 0.9480 -0.3181
vn 0.0000 0.9487 -0.3161
vn 0.0134 0.9480 -0.3181
vn 0.0256 0.9458 -0.3238
vn 0.0352 0.9423 -0.3328
vn 0.0414 0.9380 -0.3442
vn 0.0435 0.9332 -0.3567
vn 0.8090 -0.2099 -0.5490
vn 0.9511 -0.1103 -0.2886
vn 0.5878 -0.2889 -0.7557
vn 0.3090 -0.3396 -0.8884
vn -0.0000 -0.3570 -0.9341
vn -0.3090 -0.3396 -0.8884
vn -0.5878 -0.2889 -0.7557
vn -0.8090 -0.2099 -0.5490
vn -0.9511 -0.1103 -0.2886
vn -1.0000 -0.0000 0.0000
vn -0.9511 0.1103 0.2886
vn -0.8090 0.2099 0.5490
vn -0.5878 0.2889 0.7557
vn -0.3090 0.3396 0.8884
vn 0.0000 0.3570 0.9341
vn 0.3090 0.3396 0.8884
vn 0.5878 0.2889 0.7557
vn 0.8090 0.2099 0.5490
vn 0.9511 0.1103 0.2886
vn 1.0000 0.0000 0.0000
vn -0.0000 -0.9341 0.3571
vn 0.6586 0.4615 0.5944
vn 0.5972 -0.4914 0.6340
vn 0.3428 -0.6630 0.6655
vn 0.8452 0.3018 0.4412
vn 0.1861 -0.6960 0.6935
vn 0.9485 0.1726 0.2657
vn 0.0820 -0.6892 0.7199
vn 0.0000 0.0000 1.0000
vn 0.0002 -0.6670 0.7450
vn -0.9752 0.1782 0.1315
vn -0.0754 -0.6352 0.7687
vn -0.9208 0.3283 0.2107
vn -0.1585 -0.5919 0.7902
vn -0.7773 0.5447 0.3150
vn -0.2703 -0.5231 0.8083
vn -0.3662 0.8255 0.4296
vn -0.4451 -0.3663 0.8171
vn 0.7985 0.0000 0.6019
vn -0.3060 -0.4704 0.8277
vn -0.2649 -0.5972 0.7570
vn 0.4363 -0.3590 0.8251
vn -0.4110 -0.2880 0.8649
vn 0.2731 -0.5281 0.8040
vn -0.3136 -0.1120 0.9429
vn 0.1606 -0.6000 0.7837
vn -0.1600 -0.0291 0.9867
vn 0.0763 -0.6419 0.7630
vn -0.0000 -0.6707 0.7418
vn 0.1468 -0.0267 0.9888
vn -0.0818 -0.6889 0.7202
vn 0.2651 -0.0948 0.9595
vn -0.1848 -0.6909 0.6989
vn 0.3240 -0.2270 0.9184
vn -0.3366 -0.6514 0.6799
vn 0.1984 -0.4472 0.8722
vn -0.5731 -0.4716 0.6701
vn -0.5920 -0.0000 0.8060
vn 0.4167 -0.6406 0.6449
vn 0.2861 0.6449 0.7087
usemtl blinn1
s 1
f 42/1/1 44/2/2 41/3/2
f 42/1/1 46/4/3 43/5/1
f 47/6/4 46/4/3 45/7/3
f 49/8/5 48/9/4 47/6/4
f 51/10/6 50/11/5 49/8/5
f 53/12/7 52/13/6 51/10/6
f 55/14/8 54/15/7 53/12/7
f 57/16/9 56/17/8 55/14/8
f 57/16/9 60/18/10 58/19/9
f 61/20/11 60/18/10 59/21/10
f 63/22/12 62/23/11 61/20/11
f 65/24/13 64/25/14 63/22/12
f 65/26/13 68/27/15 66/28/13
f 69/29/16 68/27/15 67/30/15
f 69/29/16 72/31/17 70/32/16
f 73/33/18 72/31/17 71/34/17
f 75/35/19 74/36/18 73/33/18
f 75/35/19 78/37/20 76/38/21
f 77/39/20 80/40/22 78/37/20
f 41/3/2 80/40/22 79/41/22
f 83/42/23 82/43/23 84/44/23
f 85/45/23 83/42/23 84/44/23
f 86/46/23 85/45/23 84/44/23
f 87/47/23 86/46/23 84/44/23
f 88/48/23 87/47/23 84/44/23
f 89/49/23 88/48/23 84/44/23
f 90/50/23 89/49/23 84/44/23
f 91/51/23 90/50/23 84/44/23
f 92/52/23 91/51/23 84/44/23
f 93/53/23 92/52/23 84/44/23
f 94/54/23 93/53/23 84/44/23
f 95/55/23 94/54/23 84/44/23
f 96/56/23 95/55/23 84/44/23
f 97/57/23 96/56/23 84/44/23
f 98/58/23 97/57/23 84/44/23
f 99/59/23 98/58/23 84/44/23
f 100/60/23 99/59/23 84/44/23
f 101/61/23 100/60/23 84/44/23
f 102/62/23 101/61/23 84/44/23
f 82/43/23 102/62/23 84/44/23
f 44/63/24 43/64/25 81/65/26
f 43/64/25 46/66/27 81/65/26
f 46/66/27 48/67/28 81/65/26
f 48/67/28 50/68/29 81/65/26
f 50/68/29 52/69/30 81/65/26
f 52/69/30 54/70/31 81/65/26
f 54/70/31 56/71/32 81/65/26
f 56/71/32 58/72/33 81/65/26
f 58/72/33 60/73/34 81/65/26
f 60/73/34 62/74/35 81/65/26
f 62/74/35 64/75/36 81/65/26
f 64/75/36 66/76/37 81/65/26
f 66/76/37 68/77/38 81/65/26
f 68/77/38 70/78/39 81/65/26
f 70/78/39 72/79/40 81/65/26
f 72/79/40 74/80/41 81/65/26
f 74/80/41 76/81/42 81/65/26
f 76/81/42 78/82/43 81/65/26
f 78/82/43 80/83/44 81/65/26
f 80/83/44 44/63/24 81/65/26
f 2/84/45 21/85/46 1/86/46
f 2/84/45 23/87/47 22/88/45
f 4/89/48 23/87/47 3/90/47
f 5/91/49 24/92/48 4/89/48
f 6/93/50 25/94/49 5/91/49
f 6/93/50 27/95/51 26/96/50
f 8/97/52 27/98/51 7/99/51
f 9/100/53 28/101/52 8/97/52
f 10/102/54 29/103/53 9/100/53
f 11/104/55 30/105/54 10/102/54
f 12/106/56 31/107/55 11/104/55
f 13/108/57 32/109/56 12/106/56
f 13/108/57 34/110/58 33/111/57
f 15/112/59 34/110/58 14/113/58
f 16/114/60 35/115/59 15/112/59
f 17/116/61 36/117/60 16/114/60
f 18/118/62 37/119/61 17/116/61
f 19/120/63 38/121/62 18/118/62
f 19/120/63 40/122/64 39/123/63
f 1/86/46 40/122/64 20/124/64
f 21/125/23 42/126/23 41/127/23
f 23/128/23 42/126/23 22/129/23
f 23/128/23 47/130/65 45/131/23
f 25/132/23 47/130/65 24/133/65
f 25/132/23 51/134/65 49/135/23
f 27/136/65 51/134/65 26/137/65
f 27/136/65 55/138/23 53/139/65
f 29/140/23 55/138/23 28/141/23
f 30/142/23 57/143/23 29/140/23
f 31/144/65 59/145/23 30/142/23
f 31/144/65 63/146/23 61/147/65
f 33/148/23 63/146/23 32/149/23
f 33/148/23 67/150/65 65/151/23
f 35/152/65 67/150/65 34/153/65
f 35/152/65 71/154/65 69/155/65
f 36/156/65 73/157/23 71/154/65
f 37/158/23 75/159/23 73/157/23
f 39/160/65 75/159/23 38/161/23
f 40/162/23 77/163/65 39/160/65
f 21/125/23 79/164/23 40/162/23
f 2/165/66 82/43/67 83/42/68
f 3/166/69 83/42/68 85/45/70
f 4/167/71 85/45/70 86/46/72
f 5/168/73 86/46/72 87/47/74
f 6/169/75 87/47/74 88/48/76
f 7/170/77 88/48/76 89/49/78
f 8/171/79 89/49/78 90/50/80
f 9/172/81 90/50/80 91/51/82
f 10/173/83 91/51/82 92/52/84
f 11/174/85 92/52/84 93/53/86
f 12/175/87 93/53/86 94/54/88
f 13/176/89 94/54/88 95/55/90
f 14/177/91 95/55/90 96/56/92
f 15/178/73 96/56/92 97/57/93
f 16/179/94 97/57/93 98/58/95
f 17/180/96 98/58/95 99/59/97
f 18/181/98 99/59/97 100/60/99
f 19/182/100 100/60/99 101/61/101
f 20/183/102 101/61/101 102/62/103
f 1/184/104 102/62/103 82/43/67
f 42/1/1 43/5/1 44/2/2
f 42/1/1 45/7/3 46/4/3
f 47/6/4 48/9/4 46/4/3
f 49/8/5 50/11/5 48/9/4
f 51/10/6 52/13/6 50/11/5
f 53/12/7 54/15/7 52/13/6
f 55/14/8 56/17/8 54/15/7
f 57/16/9 58/19/9 56/17/8
f 57/16/9 59/21/10 60/18/10
f 61/20/11 62/23/11 60/18/10
f 63/22/12 64/25/14 62/23/11
f 65/24/13 66/185/13 64/25/14
f 65/26/13 67/30/15 68/27/15
f 69/29/16 70/32/16 68/27/15
f 69/29/16 71/34/17 72/31/17
f 73/33/18 74/36/18 72/31/17
f 75/35/19 76/38/21 74/36/18
f 75/35/19 77/39/20 78/37/20
f 77/39/20 79/41/22 80/40/22
f 41/3/2 44/2/2 80/40/22
f 2/84/45 22/88/45 21/85/46
f 2/84/45 3/90/47 23/87/47
f 4/89/48 24/92/48 23/87/47
f 5/91/49 25/94/49 24/92/48
f 6/93/50 26/96/50 25/94/49
f 6/93/50 7/186/51 27/95/51
f 8/97/52 28/101/52 27/98/51
f 9/100/53 29/103/53 28/101/52
f 10/102/54 30/105/54 29/103/53
f 11/104/55 31/107/55 30/105/54
f 12/106/56 32/109/56 31/107/55
f 13/108/57 33/111/57 32/109/56
f 13/108/57 14/113/58 34/110/58
f 15/112/59 35/115/59 34/110/58
f 16/114/60 36/117/60 35/115/59
f 17/116/61 37/119/61 36/117/60
f 18/118/62 38/121/62 37/119/61
f 19/120/63 39/123/63 38/121/62
f 19/120/63 20/124/64 40/122/64
f 1/86/46 21/85/46 40/122/64
f 21/125/23 22/129/23 42/126/23
f 23/128/23 45/131/23 42/126/23
f 23/128/23 24/133/65 47/130/65
f 25/132/23 49/135/23 47/130/65
f 25/132/23 26/137/65 51/134/65
f 27/136/65 53/139/65 51/134/65
f 27/136/65 28/141/23 55/138/23
f 29/140/23 57/143/23 55/138/23
f 30/142/23 59/145/23 57/143/23
f 31/144/65 61/147/65 59/145/23
f 31/144/65 32/149/23 63/146/23
f 33/148/23 65/151/23 63/146/23
f 33/148/23 34/153/65 67/150/65
f 35/152/65 69/155/65 67/150/65
f 35/152/65 36/156/65 71/154/65
f 36/156/65 37/158/23 73/157/23
f 37/158/23 38/161/23 75/159/23
f 39/160/65 77/163/65 75/159/23
f 40/162/23 79/164/23 77/163/65
f 21/125/23 41/127/23 79/164/23
f 2/165/66 1/184/104 82/43/67
f 3/166/69 2/165/66 83/42/68
f 4/167/71 3/166/69 85/45/70
f 5/168/73 4/167/71 86/46/72
f 6/169/75 5/168/73 87/47/74
f 7/170/77 6/169/75 88/48/76
f 8/171/79 7/170/77 89/49/78
f 9/172/81 8/171/79 90/50/80
f 10/173/83 9/172/81 91/51/82
f 11/174/85 10/173/83 92/52/84
f 12/175/87 11/174/85 93/53/86
f 13/176/89 12/175/87 94/54/88
f 14/177/91 13/176/89 95/55/90
f 15/178/73 14/177/91 96/56/92
f 16/179/94 15/178/73 97/57/93
f 17/180/96 16/179/94 98/58/95
f 18/181/98 17/180/96 99/59/97
f 19/182/100 18/181/98 100/60/99
f 20/183/102 19/182/100 101/61/101
f 1/184/104 20/183/102 102/62/103
