# Blender v2.92.0 OBJ File: ''
# www.blender.org
mtllib untitled.mtl
o arrow.001
v 0.000001 -0.381003 3.079760
v 0.000000 0.381000 3.079760
v -3.131330 0.380999 0.029473
v -3.131330 -0.381004 0.029471
v -1.569340 0.381001 0.014736
v -1.569341 0.381003 -3.079760
v -1.569340 -0.381000 -3.079760
v -1.569340 -0.381001 0.014736
v 3.131330 -0.381001 0.029470
v 3.131330 0.381002 0.029472
v 1.569340 0.381001 0.014736
v 1.569340 -0.381001 0.014736
v 1.569340 -0.381000 -3.079760
v 1.569339 0.381003 -3.079760
vt 0.525076 0.439749
vt 0.582656 0.109428
vt 0.582656 0.439749
vt 0.617221 0.343258
vt 0.674801 0.109428
vt 0.674801 0.343258
vt 0.525077 0.566459
vt 0.643111 0.624039
vt 0.525076 0.624038
vt 0.525076 0.017283
vt 0.855397 0.074862
vt 0.525076 0.074862
vt 0.766946 0.343258
vt 0.709366 0.109428
vt 0.766946 0.109428
vt 0.643111 0.716184
vt 0.525076 0.658604
vt 0.643111 0.658604
vt 0.135312 0.748886
vt 0.253897 0.517283
vt 0.372482 0.748886
vt 0.525076 0.531893
vt 0.762246 0.474314
vt 0.762246 0.531893
vt 0.490511 0.252227
vt 0.253897 0.482717
vt 0.372482 0.251114
vt 0.017283 0.252227
vt 0.135312 0.251114
vt 0.372482 0.982717
vt 0.017283 0.747773
vt 0.490511 0.747773
vt 0.135312 0.017283
vt 0.372482 0.017283
vt 0.525076 0.109428
vt 0.617221 0.109428
vt 0.643111 0.566459
vt 0.855397 0.017283
vt 0.709366 0.343258
vt 0.525076 0.716184
vt 0.525076 0.474314
vt 0.135312 0.982717
vn -0.6978 -0.0000 0.7163
vn -1.0000 -0.0000 0.0000
vn -0.0094 0.0000 -1.0000
vn 0.6978 0.0000 0.7163
vn 1.0000 0.0000 -0.0000
vn 0.0094 0.0000 -1.0000
vn -0.0000 1.0000 0.0000
vn 0.0000 0.0000 -1.0000
vn 0.0000 -1.0000 -0.0000
usemtl arrow
s 1
f 2/1/1 4/2/1 1/3/1
f 5/4/2 7/5/2 8/6/2
f 3/7/3 8/8/3 4/9/3
f 1/10/4 10/11/4 2/12/4
f 11/13/5 13/14/5 14/15/5
f 9/16/6 11/17/6 10/18/6
f 5/19/7 2/20/7 11/21/7
f 7/22/8 14/23/8 13/24/8
f 9/25/9 1/26/9 12/27/9
f 1/26/9 4/28/9 8/29/9
f 14/30/7 5/19/7 11/21/7
f 1/26/9 8/29/9 12/27/9
f 5/19/7 3/31/7 2/20/7
f 2/20/7 10/32/7 11/21/7
f 12/27/9 7/33/9 13/34/9
f 2/1/1 3/35/1 4/2/1
f 5/4/2 6/36/2 7/5/2
f 3/7/3 5/37/3 8/8/3
f 1/10/4 9/38/4 10/11/4
f 11/13/5 12/39/5 13/14/5
f 9/16/6 12/40/6 11/17/6
f 7/22/8 6/41/8 14/23/8
f 14/30/7 6/42/7 5/19/7
f 12/27/9 8/29/9 7/33/9
